# xmcd
#
# Track frame offsets: 
#        151
#        12098
#        27953
#        42330
#        53243
#        66208
#        79179
#        93650
#        104988
#        119517
#        132310
#        144353
#
# Disc length: 2112 seconds
#
# Revision: 2
# Processed by: cddbd v1.5.2PL0 Copyright (c) Steve Scherf et al.
# Submitted via: ExactAudioCopy v1.0b3
#
DISCID=ab083e0c
DTITLE=Various Artist - Night Cap Jazz - CD 3
DYEAR=1900
DGENRE=Jazz
TTITLE0=Lena Horne - Littel girl bue
TTITLE1=Duke Ellington - All too soon
TTITLE2=Nat King Cole - Unforgettable
TTITLE3=Woody Herman with Peggy Lee - Up a lazy river
TTITLE4=Billie Holiday - You go to my head
TTITLE5=Dinah Washington - that`s when a woman loves a heel
TTITLE6=Glen Miller Orchestra with Ray Eberle - The nearness of you
TTITLE7=Brook Benton - Nothing in the world
TTITLE8=Fletcher Henderson - Underneath the Harlem moon
TTITLE9=Coleman Hawkins - I love you
TTITLE10=Caroll Gibbins and His Orchestra - Darling, je vous aime beauco
TTITLE10=up
TTITLE11=Ella Fitzgerald - Cry my heart out for you
EXTD=Submitted by Christopher Howe, W. Yorks, UK.\nAlbum now has title
EXTD=s and artist names! :o)
EXTT0=
EXTT1=
EXTT2=
EXTT3=
EXTT4=
EXTT5=
EXTT6=
EXTT7=
EXTT8=
EXTT9=
EXTT10=
EXTT11=
PLAYORDER=
